<svg width="1024" height="1024" viewBox="0 0 1024 1024" fill="none" xmlns="http://www.w3.org/2000/svg">
<g clip-path="url(#clip0_4213_642)">
<path d="M507.525 240.387C530.156 237.434 552.657 251.486 572.454 261.055L650.159 298.682L802.661 372.804L848.621 395.272C868.07 404.77 892.439 411.24 884.902 439.043C881.208 452.647 859.589 460.506 847.723 466.635L794.554 494.228C813.789 516.872 813.536 545.384 813.452 573.361C814.864 574.513 816.201 575.748 817.464 577.059C829.638 589.554 826.889 605.539 815.042 617.043C825.795 652.643 846.694 690.334 881.376 707.484C885.407 710.102 900.592 712.506 902.528 717.092C909.653 733.991 896.759 738.158 884.631 734.438C848.368 723.32 826.272 696.248 808.786 664.445C814.378 691.448 823.925 715.709 845.806 733.989C852.81 739.842 866.939 744.358 861.777 756.425C860.459 759.577 857.84 762.001 854.596 763.068C845.441 765.985 834.033 755.329 827.562 749.768C806.112 731.333 795.134 706.664 787.326 680.208C787.447 696.773 787.466 709.778 792.833 725.821C794.975 732.239 797.789 738.413 801.221 744.239C804.157 749.18 807.935 753.161 811.236 757.884C814.35 762.322 813.873 771.563 808.926 774.379C795.564 782.141 786.138 765.938 780.472 756.334C760.731 722.93 759.806 688.389 768.773 651.701C771.439 640.825 776.498 627.37 780.715 617.07C779.331 615.831 778.04 614.484 776.872 613.04C772.29 607.469 770.102 600.302 770.794 593.117C771.747 584.056 776.264 578.646 782.968 573.141C783.053 549.272 785.381 525.84 766.026 508.337L723.949 529.648L724.071 619.598C724.008 635.96 722.645 650.278 709.382 661.598C657.517 705.863 575.251 718.841 509.876 718.389C447.323 717.956 386.228 706.413 331.955 675.514C317.506 667.287 302.339 655.606 298.432 638.406C296.506 627.78 297.324 610.571 297.316 599.306L297.419 525.853C263.889 507.877 229.354 491.271 195.742 473.403C181.006 465.57 165.342 458.816 151.241 449.947C146.625 447.043 142.714 439.107 142.146 433.801C140.556 421.883 145.603 411.335 156.506 405.823C174.745 396.603 193.307 387.642 211.718 378.583L337.199 317.588L435.975 269.91C453.426 261.496 471.138 252.751 488.794 244.807C494.022 242.454 501.858 241.041 507.525 240.387Z" fill="url(#paint0_radial_4213_642)"/>
<path d="M508.862 270.711C514.369 270.264 519.988 270.432 525.108 272.648C536.928 277.764 548.905 283.785 560.493 289.407L627.838 322.189L851.08 430.698C823.514 444.229 794.058 459.981 766.681 474.183C671.998 441.512 582.964 533.25 508.101 501.866C491.909 495.078 482.729 484.139 476.29 468.171C510.332 466.266 535.708 461.367 566.865 444.314C608.178 421.703 621.914 364.266 566.72 350.15C543.154 344.123 513.312 353.237 492.837 366.7C467.296 383.495 451.254 406.811 444.863 437.143C421.463 432.984 399.083 425.627 381.794 408.493C375.1 401.35 368.817 386.719 356.091 392.173C339.669 399.211 346.108 412.354 353.812 421.673C366.007 436.426 378.263 445.965 395.197 453.596C412.998 461.856 426.359 464.215 445.44 467.257C448.387 484.448 456.845 500.213 469.537 512.171C480.782 522.718 496.286 530.672 511.282 534.333C570.011 548.674 622.791 518.386 677.738 503.249C695.275 498.418 706.385 496.641 724.208 496.042C677.48 518.875 629.581 543.52 583.091 567.156L545.637 586.429C532.567 593.161 517.605 602.777 502.644 596.656C491.749 592.199 479.72 585.377 469.144 579.875L404.037 546.06C328.676 506.906 253.118 468.133 177.365 429.742L405.319 318.993L464.929 290.056C474.769 285.286 499.152 272.463 508.862 270.711Z" fill="white"/>
<path d="M328.333 541.868C341.374 547.729 358.74 557.328 371.851 564.103L445.169 601.824C471.321 615.373 500.16 635.604 530.687 626.464C546.693 621.671 563.127 611.328 578.358 603.934C616.823 585.258 654.514 564.259 693.112 545.913L693.135 605.596L693.084 632.601C687.235 643.969 670.905 652.846 659.582 658.38C616.764 679.304 568.526 687.187 521.226 688.067C466.418 689.088 410.501 680.661 360.844 656.552C353.492 652.985 330.167 641.054 328.976 632.382C327.914 624.653 328.283 611.163 328.284 602.858L328.333 541.868Z" fill="#C7C7C7"/>
<path d="M543.836 378.586C550.923 377.85 559.229 377.363 565.728 380.856C574.242 385.433 573.455 395.749 568.559 402.73C554.131 423.303 526.826 430.237 503.707 435.389C493.932 436.952 485.582 437.999 475.739 438.617C484.959 405.672 510.043 384.058 543.836 378.586Z" fill="white"/>
</g>
<defs>
<radialGradient id="paint0_radial_4213_642" cx="0" cy="0" r="1" gradientTransform="matrix(-401.407 16.7736 -23.8489 -570.616 543.154 508.406)" gradientUnits="userSpaceOnUse">
<stop offset="0.644231"/>
<stop offset="1" stop-color="white"/>
</radialGradient>
<clipPath id="clip0_4213_642">
<rect width="1024" height="1024" fill="white"/>
</clipPath>
</defs>
</svg>
