<svg width="202" height="161" viewBox="0 0 202 161" fill="none" xmlns="http://www.w3.org/2000/svg">
<path d="M202 34.5001V40.2501C202 41.0126 201.612 41.7438 200.921 42.283C200.23 42.8222 199.294 43.1251 198.317 43.1251H187.267V47.4376C187.267 49.8191 184.793 51.7501 181.742 51.7501H1.25833C-1.79285 51.7501 -4.26667 49.8191 -4.26667 47.4376V43.1251H-15.3167C-16.2935 43.1251 -17.2304 42.8222 -17.9212 42.283C-18.6119 41.7438 -19 41.0126 -19 40.2501V34.5001C-19 33.9313 -18.7838 33.3753 -18.3789 32.9024C-17.974 32.4295 -17.3984 32.0611 -16.7251 31.8436L91.5 0L199.725 31.8436C200.398 32.0611 200.974 32.4295 201.379 32.9024C201.784 33.3753 202 33.9313 202 34.5001ZM190.95 143.75H-7.95C-14.0528 143.75 -19 147.612 -19 152.375V158.125C-19 158.888 -18.6119 159.619 -17.9212 160.158C-17.2304 160.697 -16.2935 161 -15.3167 161H198.317C199.294 161 200.23 160.697 200.921 160.158C201.612 159.619 202 158.888 202 158.125V152.375C202 147.612 197.053 143.75 190.95 143.75ZM17.8333 57.5001V126.5H1.25833C-1.79285 126.5 -4.26667 128.431 -4.26667 130.813V138H187.267V130.813C187.267 128.431 184.793 126.5 181.742 126.5H165.167V57.5001H135.7V126.5H106.233V57.5001H76.7667V126.5H47.3V57.5001H17.8333Z" fill="#2A2A2B"/>
</svg>
